<?xml version="1.0" encoding="UTF-8" standalone="no"?>
<!-- Created with Inkscape (http://www.inkscape.org/) -->

<svg
   width="660.99304"
   height="496.42203"
   viewBox="0 0 660.99306 496.42203"
   version="1.1"
   id="svg5"
   xml:space="preserve"
   inkscape:version="1.2 (dc2aedaf03, 2022-05-15)"
   sodipodi:docname="desenho.svg"
   inkscape:export-filename="ink\logo_agro_PPP(80X60).png"
   inkscape:export-xdpi="11.618882"
   inkscape:export-ydpi="11.618882"
   xmlns:inkscape="http://www.inkscape.org/namespaces/inkscape"
   xmlns:sodipodi="http://sodipodi.sourceforge.net/DTD/sodipodi-0.dtd"
   xmlns="http://www.w3.org/2000/svg"
   xmlns:svg="http://www.w3.org/2000/svg"><sodipodi:namedview
     id="namedview7"
     pagecolor="#ffffff"
     bordercolor="#111111"
     borderopacity="1"
     inkscape:showpageshadow="0"
     inkscape:pageopacity="0"
     inkscape:pagecheckerboard="1"
     inkscape:deskcolor="#d1d1d1"
     inkscape:document-units="px"
     showgrid="false"
     inkscape:zoom="0.7192565"
     inkscape:cx="175.87606"
     inkscape:cy="215.50031"
     inkscape:window-width="1366"
     inkscape:window-height="705"
     inkscape:window-x="-8"
     inkscape:window-y="-8"
     inkscape:window-maximized="1"
     inkscape:current-layer="layer1"
     showguides="false"><inkscape:page
       x="0"
       y="0"
       width="660.99304"
       height="496.42203"
       id="page484" /><inkscape:page
       x="662.86328"
       y="0"
       width="6.4718018"
       height="8.0897808"
       id="page486" /></sodipodi:namedview><defs
     id="defs2"><clipPath
       clipPathUnits="userSpaceOnUse"
       id="clipPath358"><rect
         style="fill:#000000;fill-opacity:0;stroke:#666666;stroke-width:2.6"
         id="rect360"
         width="641.00586"
         height="490.92203"
         x="572.5871"
         y="218.39999"
         rx="2.7755576e-17" /></clipPath><clipPath
       clipPathUnits="userSpaceOnUse"
       id="clipPath401"><rect
         style="fill:#000000;fill-opacity:0;stroke:#666666;stroke-width:2.62577"
         id="rect403"
         width="754.50574"
         height="500.72189"
         x="526.59998"
         y="182.69995"
         rx="2.7754628e-17" /></clipPath></defs><g
     inkscape:label="Camada 1"
     inkscape:groupmode="layer"
     id="layer1"
     transform="translate(-564.96487,-188.40523)"><path
       style="fill:#ffffff;fill-opacity:0;stroke:#000000;stroke-width:7;stroke-linejoin:round;stroke-dasharray:none;stroke-opacity:1"
       d="m 720.76596,665.5522 c -16.65388,-0.78585 -29.48898,-2.34371 -35.95385,-4.3639 -29.16141,-9.11255 -45.75014,-32.69742 -52.04531,-73.99492 -1.07576,-7.0572 -1.4974,-13.66914 -1.77174,-27.78354 -0.7026,-36.14785 2.14148,-61.32886 17.25915,-152.80946 5.74435,-34.7604 7.6835,-51.06161 7.6835,-64.59017 v -7.84548 l -2.14992,-0.0134 c -17.91052,-0.11139 -80.1791,-1.39059 -80.44105,-1.65254 -0.19442,-0.19443 0.93138,-5.62949 2.50177,-12.07792 1.5704,-6.44843 4.60974,-18.99787 6.75409,-27.88763 2.14434,-8.88976 4.06709,-16.33178 4.27277,-16.53782 0.40431,-0.40502 11.44037,-0.40105 49.54771,0.0179 18.27583,0.20089 25.81654,0.0475 29.76807,-0.60566 20.87227,-3.44989 30.38711,-9.06005 34.36248,-20.26089 2.11976,-5.97254 2.76065,-9.9201 3.96614,-24.42932 0.54049,-6.50526 1.06808,-11.88512 1.17243,-11.95522 0.10435,-0.0701 13.10707,0.004 28.89494,0.16432 l 28.70521,0.29178 -0.44302,8.68664 c -1.83108,35.90296 -7.86191,116.97299 -12.65349,170.09576 -0.88606,9.82346 -2.06499,23.9633 -2.61983,31.42186 -1.15362,15.50773 -1.3327,45.80698 -0.33426,56.55934 3.01957,32.51865 13.69528,56.211 30.36939,67.39811 12.38261,8.30784 30.24472,12.28127 67.84997,15.09325 20.49483,1.53253 85.4711,1.01913 139.90995,-1.10548 49.60204,-1.93584 93.98814,-2.54584 95.22564,-1.3087 0.3827,0.3826 1.1381,3.95477 1.6786,7.93815 3.1144,22.95024 10.9223,82.44033 10.9223,83.21922 0,1.02061 3.083,0.86266 -60.1976,3.0839 -49.10595,1.7237 -92.59906,3.10872 -136.60241,4.35006 -41.5434,1.17195 -157.30959,1.76634 -175.63163,0.90177 z M 1109.2281,537.46083 c -3.6217,-8.41885 -6.5282,-21.70364 -10.3944,-47.50983 -6.8575,-45.7723 -9.8409,-61.11031 -15.6179,-80.29346 -4.197,-13.9365 -10.9643,-29.68331 -16.3514,-38.04835 -8.4252,-13.08229 -20.0099,-24.16464 -31.1513,-29.8003 -8.6677,-4.3844 -23.575,-8.17102 -38.10405,-9.67886 -9.27711,-0.96279 -14.48459,-0.97551 -127.21681,-0.31065 l -85.5415,0.5045 0.40858,-3.87554 c 0.22471,-2.13155 1.25616,-14.24069 2.2921,-26.9092 1.03594,-12.66851 2.08599,-23.23617 2.33345,-23.4837 0.24746,-0.24753 54.82633,-0.55239 121.28638,-0.67746 123.04955,-0.23156 143.14765,0.0507 161.07765,2.26183 37.521,4.62719 55.6004,15.91615 72.0742,45.00381 11.2075,19.78902 23.7068,56.45016 47.4513,139.17762 2.9761,10.36921 7.1389,24.36021 9.2506,31.0911 2.1116,6.7309 4.6153,14.82049 5.5638,17.97688 1.7103,5.69179 6.3426,24.32606 6.3426,25.51434 0,0.36846 -12.109,0.79597 -29.9334,1.05678 -16.4634,0.24089 -39.4774,0.63173 -51.1422,0.86852 l -21.2087,0.43051 z m -218.45336,1.98735 c -52.30033,-1.94124 -84.602,-11.13404 -98.13942,-27.92973 -1.88544,-2.33923 -5.89619,-10.03339 -5.45835,-10.47122 0.88675,-0.88675 13.5447,-1.06144 95.32886,-1.31563 108.97163,-0.33869 105.83972,-0.36397 112.12641,0.9054 7.49076,1.51249 13.02996,4.09752 31.62586,14.75919 25.2951,14.50257 33.7814,19.83864 34.3393,21.59208 0.264,0.82967 -11.8836,1.2818 -60.67306,2.25825 -27.53028,0.55098 -96.31456,0.67806 -109.1496,0.20166 z m 166.37046,-16.82831 c -2.5468,-1.4592 -11.4773,-7.19678 -19.8454,-12.75017 -8.3681,-5.5534 -18.0118,-11.68439 -21.4303,-13.62442 -12.9337,-7.34 -14.0394,-9.52139 -16.93867,-33.41631 -0.92704,-7.64047 -3.2987,-25.94784 -5.27036,-40.68304 -3.87188,-28.93646 -6.67237,-51.98227 -7.37994,-60.73105 l -0.44439,-5.49473 1.91738,0.43579 c 24.57708,5.586 39.50348,19.85496 52.55928,50.24444 17.5452,40.8392 27.0088,86.02989 24.0148,114.67544 -0.5159,4.93553 -0.816,4.99169 -7.1824,1.34405 z M 781.35588,486.23226 c -0.77722,-3.62755 -3.23266,-35.66727 -2.76885,-36.12933 0.74185,-0.73904 123.53993,-0.31977 133.87791,0.45711 10.64247,0.79976 13.29436,1.75972 23.93975,8.66598 4.17615,2.70929 13.31131,8.20047 20.30038,12.20262 11.94427,6.83966 20.72784,12.83011 20.72784,14.13653 0,0.31924 -21.86321,0.76271 -48.95195,0.99295 -26.92357,0.22884 -70.96505,0.60315 -97.86996,0.83179 l -48.91801,0.41573 z m 193.43098,-15.21084 c -2.72874,-1.48714 -8.98004,-5.60761 -13.89177,-9.15658 -4.91173,-3.54897 -13.28068,-9.31802 -18.59767,-12.82011 -19.78935,-13.03443 -19.42117,-11.93788 -22.76931,-67.81396 -0.9451,-15.77245 -1.52514,-28.87039 -1.28899,-29.10656 0.63253,-0.63251 10.66501,-1.29827 20.55549,-1.36406 10.0595,-0.0669 18.36639,0.89726 23.19602,2.69233 2.8373,1.05456 3.57559,1.68078 4.39065,3.72411 3.04328,7.62949 7.21655,39.02629 11.66928,87.79154 1.09631,12.00645 2.17144,23.39274 2.38919,25.30286 0.21776,1.91012 0.15124,3.46876 -0.14781,3.46364 -0.29906,-0.005 -2.77634,-1.22606 -5.50508,-2.71321 z m -196.27607,-58.6328 c 0.18006,-14.82616 0.65002,-29.12618 1.04437,-31.77782 1.53073,-10.2928 2.25083,-13.48136 3.11996,-13.81487 2.64562,-1.01522 100.06187,56.97581 114.94272,68.42439 l 4.07186,3.13268 -30.42959,0.40336 c -16.73627,0.22185 -44.52518,0.44511 -61.75314,0.49614 l -31.32354,0.0928 z m 121.62868,9.73682 C 876.37486,409.17153 817.48517,371.6355 798.49371,357.33685 l -6.61513,-4.98052 9.59193,-0.51726 c 10.32696,-0.55691 89.61584,-0.0936 96.36431,0.56304 l 4.08328,0.39733 0.38221,4.73979 c 0.2102,2.60689 0.97912,16.2005 1.70869,30.20804 0.72958,14.00753 1.51205,28.07295 1.73884,31.25648 0.22804,3.20119 0.15246,5.78407 -0.16912,5.77893 -0.31981,-0.005 -2.76746,-1.20088 -5.43925,-2.65724 z"
       id="path291"
       clip-path="url(#clipPath401)"
       sodipodi:nodetypes="sssssscsssssscsssccsssssssscsssssssssssscsssssssssssscsssssssssssssssscsssssssssssscssssssssssssssssscsscssscsscsssss"
       transform="translate(0.56338995,-9.5254611)" /><path
       style="fill:none;stroke:#356b34;stroke-width:0.661513"
       d="m 573.91013,322.97333 v 2.64605 m 638.35977,206.392 v 1.98454"
       id="path356" /></g></svg>
